<svg xmlns="http://www.w3.org/2000/svg" xmlns:xlink="http://www.w3.org/1999/xlink" width="531" height="635" viewBox="0 0 531 635">
  <defs>
    <clipPath id="clip-path">
      <rect id="Rectangle_42" data-name="Rectangle 42" width="531" height="635" transform="translate(4938 57)" fill="#fff" stroke="#707070" stroke-width="1"/>
    </clipPath>
    <clipPath id="clip-path-2">
      <rect id="Rectangle_41" data-name="Rectangle 41" width="275.136" height="662.962" fill="none"/>
    </clipPath>
    <clipPath id="clip-path-4">
      <rect id="Rectangle_31" data-name="Rectangle 31" width="29.599" height="29.599" fill="none"/>
    </clipPath>
    <clipPath id="clip-path-6">
      <rect id="Rectangle_38" data-name="Rectangle 38" width="40.614" height="21.411" fill="none"/>
    </clipPath>
    <clipPath id="clip-path-7">
      <rect id="Rectangle_39" data-name="Rectangle 39" width="42.388" height="21.411" fill="none"/>
    </clipPath>
  </defs>
  <g id="Mask_Group_1" data-name="Mask Group 1" transform="translate(-4938 -57)" clip-path="url(#clip-path)">
    <g id="Group_86" data-name="Group 86" transform="translate(5065.601 115.601)">
      <g id="Group_85" data-name="Group 85" clip-path="url(#clip-path-2)">
        <g id="Group_84" data-name="Group 84">
          <g id="Group_83" data-name="Group 83" clip-path="url(#clip-path-2)">
            <path id="Path_16" data-name="Path 16" d="M43.668,208.191c-7.045,8.552-20.885,8.784-30.912.535s-9.6-20.378-2.545-28.932l62.968-76.465c7.047-8.538,18.032-10.3,28.06-2.017,10.025,8.247,12.445,21.878,5.4,30.425Z" transform="translate(6.456 122.491)" fill="#3a8981"/>
            <path id="Path_17" data-name="Path 17" d="M160.726,203.253c3.943,3,8.5-3.452,12.86-6.3,8.745-9.6,14.772-5.683,2.846-25.047L105.513,101.77c-8.185-7.445-21.919-5.728-30.664,3.9C66.1,115.262,79.316,129.1,87.51,136.555Z" transform="translate(91.893 124.037)" fill="#3a8981"/>
            <path id="Path_18" data-name="Path 18" d="M82.282,197.47V404.832H56.173L28.679,197.47Z" transform="translate(36.618 252.135)" fill="#ffd9ac"/>
            <path id="Path_19" data-name="Path 19" d="M46.279,330.2H73.522V249.213H35.54Z" transform="translate(45.378 318.201)" fill="#4db6ac"/>
            <path id="Path_20" data-name="Path 20" d="M62.29,277.29a31.626,31.626,0,0,0-31.618,31.621H96.06c0-17.466-16.3-31.621-33.77-31.621" transform="translate(39.163 354.052)" fill="#6d4c41"/>
            <path id="Path_21" data-name="Path 21" d="M57.363,282.922a25.112,25.112,0,0,0,3.969-.011c4.624-.294,8.889-2.379,8.736-5.692-.182-4.1-3.757-5.5-8.431-2.045A49.046,49.046,0,0,0,54.2,282.15a31.74,31.74,0,0,0-6.737-6.163c-4.7-3.22-8.9-2.049-9.592,2.4-.5,3.24,3.067,5.9,9.342,5.394a32,32,0,0,0,4.426-.692l-13.39,6.6s3.149,2.93,3.34,3.172l12.691-9.485v0l15.048,7.664,1.988-4.283Zm3.474-4.941c2.045-1.236,5.376-3.094,5.883-.82.43,1.928-1.767,3.056-4.59,3.725a18.548,18.548,0,0,1-5.31.628,17.161,17.161,0,0,1,4.016-3.534M46.258,282.3c-3.135-.25-5.348-1.658-4.979-3.381s2.076-2.231,5.54-.631a15.207,15.207,0,0,1,4.838,3.529,15.494,15.494,0,0,1-5.4.483m8.005.187c.057.016.112.025.187.046l-.052.262Z" transform="translate(48.298 348.854)" fill="#fff"/>
            <path id="Path_22" data-name="Path 22" d="M69.659,197.47V404.832H95.767l27.5-207.362Z" transform="translate(88.943 252.135)" fill="#ffd9ac"/>
            <path id="Path_23" data-name="Path 23" d="M96.9,330.2H69.659V249.213h37.984Z" transform="translate(88.942 318.201)" fill="#4db6ac"/>
            <path id="Path_24" data-name="Path 24" d="M96.252,277.29a31.63,31.63,0,0,1,31.627,31.621H62.489c0-17.466,16.3-31.621,33.763-31.621" transform="translate(79.788 354.052)" fill="#6d4c41"/>
            <path id="Path_25" data-name="Path 25" d="M68.828,286.759l1.988,4.283,15.05-7.664v0l12.691,9.485c.191-.241,3.342-3.172,3.342-3.172l-13.392-6.6a32.269,32.269,0,0,0,4.426.694c6.275.508,9.84-2.156,9.342-5.4-.69-4.447-4.893-5.615-9.59-2.4a31.651,31.651,0,0,0-6.739,6.163,49.34,49.34,0,0,0-7.436-6.976c-4.672-3.454-8.249-2.056-8.431,2.045-.15,3.313,4.114,5.4,8.738,5.692a25.385,25.385,0,0,0,3.966.014Zm14.5-5.243a18.443,18.443,0,0,1-5.31-.628c-2.826-.669-5.023-1.8-4.59-3.725.508-2.275,3.839-.417,5.883.822a17.122,17.122,0,0,1,4.016,3.531m5.164.3a15.218,15.218,0,0,1,4.836-3.529c3.465-1.6,5.178-1.1,5.542.631s-1.847,3.131-4.979,3.381a15.417,15.417,0,0,1-5.4-.483m-2.741.977-.052-.262c.075-.02.128-.03.187-.046Z" transform="translate(87.882 348.854)" fill="#fff"/>
            <path id="Path_26" data-name="Path 26" d="M201.54,326.275c0-38.729-2.525-127.593-7.031-161.559h.014c-.018-.109-.041-.212-.05-.312,0-.023-6.04-.05-9.324-.073l-159.3.385h.009c-4.524,33.9-7.049,122.76-7.049,161.559Z" transform="translate(24.021 209.822)" fill="#3a8981"/>
            <path id="Path_27" data-name="Path 27" d="M179.129,252.063h11.384c-9.019-67.8-16.974-123.518-38.631-156.459H60.975c-21.869,32.912-30,88.71-39.07,156.867l159.3-.385c-1.218-.009-2.07-.016-2.072-.023" transform="translate(27.969 122.07)" fill="#4db6ac"/>
            <g id="Group_73" data-name="Group 73" transform="translate(87.62 150.032)" opacity="0.2" style="mix-blend-mode: multiply;isolation: isolate">
              <g id="Group_72" data-name="Group 72">
                <g id="Group_71" data-name="Group 71" clip-path="url(#clip-path-4)">
                  <path id="Path_28" data-name="Path 28" d="M68.082,80.7a14.8,14.8,0,1,1-14.8-14.8,14.8,14.8,0,0,1,14.8,14.8" transform="translate(-38.483 -65.895)" fill="#ffd9ac"/>
                </g>
              </g>
            </g>
            <g id="Group_76" data-name="Group 76" transform="translate(157.196 150.032)" opacity="0.2" style="mix-blend-mode: multiply;isolation: isolate">
              <g id="Group_75" data-name="Group 75">
                <g id="Group_74" data-name="Group 74" clip-path="url(#clip-path-4)">
                  <path id="Path_29" data-name="Path 29" d="M98.641,80.7a14.8,14.8,0,1,1-14.8-14.8,14.8,14.8,0,0,1,14.8,14.8" transform="translate(-69.042 -65.895)" fill="#ffd9ac"/>
                </g>
              </g>
            </g>
            <path id="Path_30" data-name="Path 30" d="M225.276,69.678a35.279,35.279,0,0,0,1.537-10.271c0-16.878-11.653-30.589-26.024-30.589a22.4,22.4,0,0,0-5.917.826,30.375,30.375,0,0,0-28.72-20.778,29.958,29.958,0,0,0-16.261,4.8,33.573,33.573,0,0,0-53.382-.895,29.908,29.908,0,0,0-14.779-3.9A30.359,30.359,0,0,0,52.592,31.1c-.4-.018-.779-.071-1.177-.071-14.369,0-26.02,13.718-26.02,30.6a35.583,35.583,0,0,0,1.227,9.287c-9.595,4.506-16.382,15.514-16.382,28.394,0,10.016,4.121,18.886,10.453,24.471,6.6,38.476,30.76,55.211,53.667,63-.2-.244-.385-.494-.581-.738-9.629-12.017-13.98-26.35-19.048-41.452-3.859.112-8.3-3.422-10.758-8.952a19.662,19.662,0,0,1-1.544-5.562c8.948-3.2,35.767-16.427,37.058-60.12.03-1.081.073-2.149.073-3.265.3,1.134.649,2.234,1.02,3.317,14.378,41.828,82.722,46.122,112.733,45.933,1.928-.007,3.7-.036,5.285-.08-.082,1.038-.153,2.065-.269,3.115a5.767,5.767,0,0,1,.968.048c2.949.419,5.2,3.206,6.186,7.054a18.957,18.957,0,0,1,.351,7.2,20.066,20.066,0,0,1-.444,2.249,17.931,17.931,0,0,1-1.826,4.581c-1.972,3.415-4.884,5.458-7.83,5.036a5.875,5.875,0,0,1-2.935-1.362c-5.369,16.325-14,32.474-24.811,45.081.28-.087.562-.182.845-.271,24.571-7.766,50.416-25.526,58.751-65.208.03-.15.048-.294.082-.442,7.284-5.428,12.135-14.966,12.135-25.84,0-12.031-5.929-22.422-14.526-27.415" transform="translate(13.076)" fill="#fff"/>
            <path id="Path_31" data-name="Path 31" d="M187.43,88.673c-.981-3.846-3.238-6.635-6.186-7.054a5.752,5.752,0,0,0-.968-.046c.116-1.05.187-2.076.271-3.115-1.587.041-3.358.073-5.287.08-30.009.189-98.354-4.107-112.73-45.935-.373-1.084-.722-2.183-1.022-3.317,0,1.116-.041,2.183-.073,3.267-1.289,43.69-28.11,56.923-37.055,60.12a19.566,19.566,0,0,0,1.541,5.56c2.457,5.53,6.9,9.066,10.758,8.955,5.068,15.1,9.422,29.435,19.048,41.45a82.489,82.489,0,0,0,23.989,12.338v19.3H68.821a1.69,1.69,0,0,0-.285.9c0,6.6,36.807,39.275,36.807,39.275s36.812-32.675,36.812-39.275a1.692,1.692,0,0,0-.287-.9H128.31V161.614a82.484,82.484,0,0,0,22.472-10.426c-.282.089-.565.182-.847.269,10.813-12.607,19.442-28.756,24.813-45.081a5.828,5.828,0,0,0,2.935,1.362c2.946.423,5.858-1.619,7.83-5.036.385-1.466.742-2.942,1.043-4.442.257-.03.521-.1.781-.139a20.069,20.069,0,0,0,.444-2.25,18.912,18.912,0,0,0-.351-7.2" transform="translate(31.129 37.394)" fill="#ffd9ac"/>
            <path id="Path_32" data-name="Path 32" d="M97.278,104.916h13.661l-13.661,21.6L48.684,88.126H97.278Z" transform="translate(62.161 112.522)" fill="#f1c287"/>
            <path id="Path_33" data-name="Path 33" d="M55.391,68.752A13.792,13.792,0,0,1,74.9,68.346" transform="translate(70.725 82.362)" fill="#f1c287"/>
            <path id="Path_34" data-name="Path 34" d="M64.337,80.073c0,2.933-1.33,5.31-2.971,5.31s-2.974-2.377-2.974-5.31,1.33-5.31,2.974-5.31,2.971,2.379,2.971,5.31" transform="translate(74.557 95.459)" fill="#73311d"/>
            <path id="Path_35" data-name="Path 35" d="M56.909,81.873c-.219-6.591,2.391-8.349,4.34-8.349a3.335,3.335,0,0,1,2.7,1.025,3.29,3.29,0,0,1,2.379-1.025c1.516,0,5.086,1.1,4.328,8.422s-6.815,7.031-6.815,7.031c-1.516.073-6.719-.515-6.935-7.1m6.887-4.3c-1.357,0-2.454,1.837-2.454,4.1s1.1,4.1,2.454,4.1,2.45-1.837,2.45-4.1-1.1-4.1-2.45-4.1" transform="translate(72.647 93.877)" fill="#e57373"/>
            <path id="Path_36" data-name="Path 36" d="M191.591,168.711h.014c-.018-.109-.041-.212-.05-.312,0-.023-.011-.1-.011-.1q-.478-3.576-.947-7.1H23.939q-.5,3.733-1,7.509h.009c-.658,4.934-1.273,10.765-1.847,17.208H193.429c-.569-6.441-1.184-12.27-1.837-17.208" transform="translate(26.939 205.827)" fill="#6d4c41"/>
            <path id="Path_37" data-name="Path 37" d="M92.82,194.287H49.988V159.062H92.82ZM55.029,189.25H87.781V164.1H55.029Z" transform="translate(63.826 203.095)" fill="#a1887f"/>
            <path id="Path_38" data-name="Path 38" d="M76.272,167.659a2.222,2.222,0,0,1-2.209,2.227H60.352a2.213,2.213,0,1,1,0-4.426H74.063a2.209,2.209,0,0,1,2.209,2.2" transform="translate(74.231 211.264)" fill="#a1887f"/>
            <path id="Path_39" data-name="Path 39" d="M60.4,134.689l50.3-18.128L96.7,95.5Z" transform="translate(77.124 121.937)" fill="#fff"/>
            <path id="Path_40" data-name="Path 40" d="M87.7,134.689,37.4,116.561,51.412,95.5Z" transform="translate(47.757 121.937)" fill="#fff"/>
            <path id="Path_41" data-name="Path 41" d="M66.387,120.2a4.1,4.1,0,1,1-4.1-4.1,4.1,4.1,0,0,1,4.1,4.1" transform="translate(74.294 148.241)" fill="#fff"/>
            <path id="Path_42" data-name="Path 42" d="M66.387,128.749a4.1,4.1,0,1,1-4.1-4.1,4.1,4.1,0,0,1,4.1,4.1" transform="translate(74.294 159.158)" fill="#fff"/>
            <path id="Path_43" data-name="Path 43" d="M66.387,137.3a4.1,4.1,0,1,1-4.1-4.1,4.1,4.1,0,0,1,4.1,4.1" transform="translate(74.294 170.073)" fill="#fff"/>
            <path id="Path_44" data-name="Path 44" d="M66.387,145.851a4.1,4.1,0,1,1-4.1-4.1,4.1,4.1,0,0,1,4.1,4.1" transform="translate(74.294 180.99)" fill="#fff"/>
            <path id="Path_45" data-name="Path 45" d="M66.387,154.4a4.1,4.1,0,1,1-4.1-4.1,4.1,4.1,0,0,1,4.1,4.1" transform="translate(74.294 191.909)" fill="#fff"/>
            <path id="Path_46" data-name="Path 46" d="M9.42,148.218c1.138-11.935,9.337-20.314,22.27-19.073s22.479,11.9,21.329,23.838L45.542,217.09C44.411,229,33,237.666,20.058,236.411,7.123,235.182.787,224.255,1.932,212.32Z" transform="translate(2.298 164.741)" fill="#3a8981"/>
            <path id="Path_47" data-name="Path 47" d="M6.831,204.973a22.865,22.865,0,1,1,32.34-.282,22.846,22.846,0,0,1-32.34.282" transform="translate(0 211.704)" fill="#ffd9ac"/>
            <rect id="Rectangle_33" data-name="Rectangle 33" width="28.841" height="3.798" transform="translate(162.452 362.924)" fill="#fff"/>
            <rect id="Rectangle_34" data-name="Rectangle 34" width="28.841" height="11.195" transform="translate(162.452 286.27)" fill="#fff"/>
            <rect id="Rectangle_35" data-name="Rectangle 35" width="28.841" height="2.464" transform="translate(162.452 360.461)" fill="#e6e6e6"/>
            <rect id="Rectangle_36" data-name="Rectangle 36" width="28.841" height="3.604" transform="translate(162.452 297.465)" fill="#e6e6e6"/>
            <rect id="Rectangle_37" data-name="Rectangle 37" width="28.841" height="59.391" transform="translate(162.452 301.07)" fill="#ff8a65"/>
            <path id="Path_48" data-name="Path 48" d="M165.34,167.419c11.245-4.142,16.7-12.828,12.2-25.011S160.3,123.7,149.052,127.86L88.968,151.436c-11.227,4.137-16.691,17.384-12.186,29.578,4.49,12.188,17.231,14.155,28.474,10Z" transform="translate(96.022 161.655)" fill="#3a8981"/>
            <path id="Path_49" data-name="Path 49" d="M71.258,148.754a22.865,22.865,0,1,0,31.138-8.743,22.847,22.847,0,0,0-31.138,8.743" transform="translate(87.246 175.027)" fill="#ffd9ac"/>
            <path id="Path_50" data-name="Path 50" d="M48.921,59.926a4.033,4.033,0,1,1-4.03-4.032,4.032,4.032,0,0,1,4.03,4.032" transform="translate(52.164 71.367)" fill="#6d534b"/>
            <path id="Path_51" data-name="Path 51" d="M81.123,59.926a4.038,4.038,0,1,1-4.035-4.032,4.038,4.038,0,0,1,4.035,4.032" transform="translate(93.268 71.367)" fill="#6d534b"/>
            <g id="Group_79" data-name="Group 79" transform="translate(78.735 135.811)" opacity="0.6">
              <g id="Group_78" data-name="Group 78">
                <g id="Group_77" data-name="Group 77" clip-path="url(#clip-path-6)">
                  <path id="Path_52" data-name="Path 52" d="M75.2,78.7c0,2.607-4.162,2.357-9.285,2.357H43.87c-5.132,0-9.289.25-9.289-2.357V62.008c0-2.607,4.157-2.352,9.289-2.352H65.91c5.123,0,9.285-.255,9.285,2.352Z" transform="translate(-34.581 -59.649)" fill="#fff"/>
                </g>
              </g>
            </g>
            <path id="Path_53" data-name="Path 53" d="M67.677,59.421H43.183c-3.77-.018-6.755-.032-8.194,1.307a2.536,2.536,0,0,0-.833,1.949V79.366a2.528,2.528,0,0,0,.833,1.947c1.439,1.339,4.424,1.325,8.194,1.307H67.677c3.775.018,6.755.032,8.192-1.307a2.506,2.506,0,0,0,.836-1.947V62.677a2.515,2.515,0,0,0-.836-1.949c-1.437-1.339-4.417-1.325-8.192-1.307m-1.223,1.8h1.232c3.065-.009,5.954-.023,6.821.783a.8.8,0,0,1,.262.676V79.366a.82.82,0,0,1-.262.681c-.867.8-3.757.79-6.821.781H43.178c-3.067.009-5.958.018-6.83-.781a.842.842,0,0,1-.257-.681V62.677A.823.823,0,0,1,36.348,62c.872-.806,3.764-.792,6.83-.783H66.454Z" transform="translate(43.61 75.866)" fill="#fff"/>
            <g id="Group_82" data-name="Group 82" transform="translate(150.181 135.811)" opacity="0.6">
              <g id="Group_81" data-name="Group 81">
                <g id="Group_80" data-name="Group 80" clip-path="url(#clip-path-7)">
                  <path id="Path_54" data-name="Path 54" d="M108.349,78.7c0,2.607-4.346,2.357-9.686,2.357H75.647c-5.346,0-9.686.25-9.686-2.357V62.008c0-2.607,4.34-2.352,9.686-2.352H98.663c5.339,0,9.686-.255,9.686,2.352Z" transform="translate(-65.961 -59.649)" fill="#fff"/>
                </g>
              </g>
            </g>
            <path id="Path_55" data-name="Path 55" d="M100.5,59.421H74.936c-3.937-.018-7.051-.032-8.552,1.307a2.5,2.5,0,0,0-.87,1.949V79.366a2.491,2.491,0,0,0,.87,1.947c1.5,1.339,4.615,1.325,8.552,1.307H100.5c3.946.018,7.054.032,8.561-1.307a2.485,2.485,0,0,0,.863-1.947V62.677a2.493,2.493,0,0,0-.863-1.949c-1.507-1.339-4.615-1.325-8.561-1.307m-1.273,1.8h1.282c3.2-.009,6.218-.023,7.129.783a.816.816,0,0,1,.271.676V79.366a.834.834,0,0,1-.271.681c-.911.8-3.928.79-7.129.781H74.931c-3.2.009-6.22.018-7.129-.781a.848.848,0,0,1-.271-.681V62.677A.83.83,0,0,1,67.8,62c.908-.806,3.932-.792,7.129-.783h24.3Z" transform="translate(83.65 75.866)" fill="#fff"/>
            <path id="Path_56" data-name="Path 56" d="M52.243,65.155l1.116,1.935a32.372,32.372,0,0,1,29.458.4l1.041-1.979a34.036,34.036,0,0,0-31.614-.355" transform="translate(66.705 78.453)" fill="#fff"/>
          </g>
        </g>
      </g>
    </g>
  </g>
</svg>
